<?xml version="1.0" standalone="no"?>
<!DOCTYPE svg PUBLIC "-//W3C//DTD SVG 20010904//EN"
 "http://www.w3.org/TR/2001/REC-SVG-20010904/DTD/svg10.dtd">
<svg version="1.0" xmlns="http://www.w3.org/2000/svg"
 width="260.000000pt" height="260.000000pt" viewBox="0 0 260.000000 260.000000"
 preserveAspectRatio="xMidYMid meet">
<metadata>
Created by potrace 1.14, written by Peter Selinger 2001-2017
</metadata>
<g transform="translate(0.000000,260.000000) scale(0.100000,-0.100000)"
fill="#000000" stroke="none">
<path d="M680 2048 c0 -449 -2 -496 -18 -528 -31 -64 -88 -75 -168 -35 -27 14
-52 25 -56 25 -5 0 -8 -67 -8 -150 0 -172 -4 -164 104 -195 119 -35 256 -2
338 80 49 48 96 144 108 220 6 34 10 283 10 568 l0 507 -155 0 -155 0 0 -492z"/>
<path d="M1269 2523 c-4 -84 0 -916 5 -972 6 -60 5 -71 -9 -72 -8 -1 -18 -2
-22 -3 -5 -1 -26 -5 -48 -10 -191 -36 -365 -250 -365 -448 0 -29 -1 -30 -32
-23 -60 14 -186 14 -240 0 -119 -32 -232 -117 -293 -221 -147 -251 -31 -575
247 -685 69 -27 203 -34 278 -14 189 50 328 207 354 398 10 77 11 78 36 73 70
-17 177 -18 235 -3 32 9 60 15 61 14 1 -1 4 -32 8 -69 17 -178 133 -330 306
-399 69 -27 203 -34 279 -14 204 54 343 221 358 431 23 311 -273 562 -577 491
-36 -9 -65 -15 -66 -14 -1 1 -4 29 -8 62 -3 33 -8 69 -11 80 -6 19 1 22 67 33
201 34 302 154 324 384 5 56 9 863 5 976 -1 22 -2 22 -156 22 l-155 0 0 -27
c-1 -16 -2 -242 -3 -504 l-2 -475 -25 -37 c-40 -58 -121 -73 -182 -33 -52 34
-52 35 -54 556 -1 267 -3 493 -3 503 -1 15 -15 17 -156 17 -141 0 -155 -2
-156 -17z"/>
</g>
</svg>
